<?xml version="1.0" encoding="UTF-8" standalone="no"?>
<!DOCTYPE svg PUBLIC "-//W3C//DTD SVG 1.1//EN"
 "http://www.w3.org/Graphics/SVG/1.1/DTD/svg11.dtd">
<!-- Generated by graphviz version 15.1.0 (20260618.0150)
 -->
<!-- Title: Routes Pages: 1 -->
<svg width="479pt" height="1439pt"
 viewBox="0.00 0.00 479.00 1439.00" xmlns="http://www.w3.org/2000/svg" xmlns:xlink="http://www.w3.org/1999/xlink">
<g id="graph0" class="graph" transform="scale(1 1) rotate(0) translate(4 1434.75)">
<title>Routes</title>
<polygon fill="white" stroke="none" points="-4,4 -4,-1434.75 474.5,-1434.75 474.5,4 -4,4"/>
<!-- Client -->
<g id="node1" class="node">
<title>Client</title>
<ellipse fill="#dbeafe" stroke="#93c5fd" cx="27" cy="-680.38" rx="27" ry="18"/>
<text xml:space="preserve" text-anchor="middle" x="27" y="-678" font-family="Segoe UI" font-size="10.00">Client</text>
</g>
<!-- route_admin -->
<g id="node2" class="node">
<title>route_admin</title>
<path fill="#f8fafc" stroke="#cbd5e1" d="M400.75,-1430.75C400.75,-1430.75 159.75,-1430.75 159.75,-1430.75 153.75,-1430.75 147.75,-1424.75 147.75,-1418.75 147.75,-1418.75 147.75,-1392 147.75,-1392 147.75,-1386 153.75,-1380 159.75,-1380 159.75,-1380 400.75,-1380 400.75,-1380 406.75,-1380 412.75,-1386 412.75,-1392 412.75,-1392 412.75,-1418.75 412.75,-1418.75 412.75,-1424.75 406.75,-1430.75 400.75,-1430.75"/>
<text xml:space="preserve" text-anchor="middle" x="280.25" y="-1417.25" font-family="Segoe UI" font-size="10.00">GET admin</text>
<text xml:space="preserve" text-anchor="middle" x="280.25" y="-1403" font-family="Segoe UI" font-size="10.00">filament.admin.home</text>
<text xml:space="preserve" text-anchor="middle" x="280.25" y="-1388.75" font-family="Segoe UI" font-size="10.00">Filament\\Http\\Controllers\\RedirectToHomeController</text>
</g>
<!-- Client&#45;&gt;route_admin -->
<g id="edge1" class="edge">
<title>Client&#45;&gt;route_admin</title>
<path fill="none" stroke="#64748b" d="M28.35,-698.7C30.49,-803.03 43.43,-1319.25 90,-1370.38 102.79,-1384.42 119.23,-1393.95 137.07,-1400.28"/>
<polygon fill="#64748b" stroke="#64748b" points="135.69,-1403.51 146.28,-1403.19 137.8,-1396.84 135.69,-1403.51"/>
</g>
<!-- route_admin_login -->
<g id="node3" class="node">
<title>route_admin_login</title>
<path fill="#f8fafc" stroke="#cbd5e1" d="M343.38,-1361.75C343.38,-1361.75 217.12,-1361.75 217.12,-1361.75 211.12,-1361.75 205.12,-1355.75 205.12,-1349.75 205.12,-1349.75 205.12,-1323 205.12,-1323 205.12,-1317 211.12,-1311 217.12,-1311 217.12,-1311 343.38,-1311 343.38,-1311 349.38,-1311 355.38,-1317 355.38,-1323 355.38,-1323 355.38,-1349.75 355.38,-1349.75 355.38,-1355.75 349.38,-1361.75 343.38,-1361.75"/>
<text xml:space="preserve" text-anchor="middle" x="280.25" y="-1348.25" font-family="Segoe UI" font-size="10.00">GET admin/login</text>
<text xml:space="preserve" text-anchor="middle" x="280.25" y="-1334" font-family="Segoe UI" font-size="10.00">filament.admin.auth.login</text>
<text xml:space="preserve" text-anchor="middle" x="280.25" y="-1319.75" font-family="Segoe UI" font-size="10.00">Filament\\Pages\\Auth\\Login</text>
</g>
<!-- Client&#45;&gt;route_admin_login -->
<g id="edge2" class="edge">
<title>Client&#45;&gt;route_admin_login</title>
<path fill="none" stroke="#64748b" d="M28.54,-698.76C31.6,-796.84 48.1,-1255.82 90,-1301.38 115.93,-1329.57 156.59,-1339.53 193.59,-1341.93"/>
<polygon fill="#64748b" stroke="#64748b" points="193.27,-1345.42 203.42,-1342.38 193.59,-1338.43 193.27,-1345.42"/>
</g>
<!-- route_admin_logout -->
<g id="node4" class="node">
<title>route_admin_logout</title>
<path fill="#f8fafc" stroke="#cbd5e1" d="M395.12,-1292.75C395.12,-1292.75 165.38,-1292.75 165.38,-1292.75 159.38,-1292.75 153.38,-1286.75 153.38,-1280.75 153.38,-1280.75 153.38,-1254 153.38,-1254 153.38,-1248 159.38,-1242 165.38,-1242 165.38,-1242 395.12,-1242 395.12,-1242 401.12,-1242 407.12,-1248 407.12,-1254 407.12,-1254 407.12,-1280.75 407.12,-1280.75 407.12,-1286.75 401.12,-1292.75 395.12,-1292.75"/>
<text xml:space="preserve" text-anchor="middle" x="280.25" y="-1279.25" font-family="Segoe UI" font-size="10.00">POST admin/logout</text>
<text xml:space="preserve" text-anchor="middle" x="280.25" y="-1265" font-family="Segoe UI" font-size="10.00">filament.admin.auth.logout</text>
<text xml:space="preserve" text-anchor="middle" x="280.25" y="-1250.75" font-family="Segoe UI" font-size="10.00">Filament\\Http\\Controllers\\Auth\\LogoutController</text>
</g>
<!-- Client&#45;&gt;route_admin_logout -->
<g id="edge3" class="edge">
<title>Client&#45;&gt;route_admin_logout</title>
<path fill="none" stroke="#64748b" d="M28.78,-698.78C32.84,-790.17 52.74,-1192.37 90,-1232.38 104.19,-1247.61 122.68,-1257.5 142.54,-1263.75"/>
<polygon fill="#64748b" stroke="#64748b" points="141.33,-1267.04 151.9,-1266.37 143.22,-1260.3 141.33,-1267.04"/>
</g>
<!-- route_admin_seo_settings -->
<g id="node5" class="node">
<title>route_admin_seo_settings</title>
<path fill="#f8fafc" stroke="#cbd5e1" d="M438.62,-1223.75C438.62,-1223.75 121.88,-1223.75 121.88,-1223.75 115.88,-1223.75 109.88,-1217.75 109.88,-1211.75 109.88,-1211.75 109.88,-1185 109.88,-1185 109.88,-1179 115.88,-1173 121.88,-1173 121.88,-1173 438.62,-1173 438.62,-1173 444.62,-1173 450.62,-1179 450.62,-1185 450.62,-1185 450.62,-1211.75 450.62,-1211.75 450.62,-1217.75 444.62,-1223.75 438.62,-1223.75"/>
<text xml:space="preserve" text-anchor="middle" x="280.25" y="-1210.25" font-family="Segoe UI" font-size="10.00">GET admin/seo&#45;settings</text>
<text xml:space="preserve" text-anchor="middle" x="280.25" y="-1196" font-family="Segoe UI" font-size="10.00">filament.admin.resources.seo&#45;settings.index</text>
<text xml:space="preserve" text-anchor="middle" x="280.25" y="-1181.75" font-family="Segoe UI" font-size="10.00">App\\Filament\\Resources\\SeoSettingResource\\Pages\\ListSeoSettings</text>
</g>
<!-- Client&#45;&gt;route_admin_seo_settings -->
<g id="edge4" class="edge">
<title>Client&#45;&gt;route_admin_seo_settings</title>
<path fill="none" stroke="#64748b" d="M27.6,-698.7C26.25,-778.51 25.14,-1094.83 90,-1163.38 93.2,-1166.76 96.62,-1169.88 100.21,-1172.75"/>
<polygon fill="#64748b" stroke="#64748b" points="98.1,-1175.55 108.27,-1178.52 102.18,-1169.85 98.1,-1175.55"/>
</g>
<!-- route_admin_seo_settings_create -->
<g id="node6" class="node">
<title>route_admin_seo_settings_create</title>
<path fill="#f8fafc" stroke="#cbd5e1" d="M443.5,-1154.75C443.5,-1154.75 117,-1154.75 117,-1154.75 111,-1154.75 105,-1148.75 105,-1142.75 105,-1142.75 105,-1116 105,-1116 105,-1110 111,-1104 117,-1104 117,-1104 443.5,-1104 443.5,-1104 449.5,-1104 455.5,-1110 455.5,-1116 455.5,-1116 455.5,-1142.75 455.5,-1142.75 455.5,-1148.75 449.5,-1154.75 443.5,-1154.75"/>
<text xml:space="preserve" text-anchor="middle" x="280.25" y="-1141.25" font-family="Segoe UI" font-size="10.00">GET admin/seo&#45;settings/create</text>
<text xml:space="preserve" text-anchor="middle" x="280.25" y="-1127" font-family="Segoe UI" font-size="10.00">filament.admin.resources.seo&#45;settings.create</text>
<text xml:space="preserve" text-anchor="middle" x="280.25" y="-1112.75" font-family="Segoe UI" font-size="10.00">App\\Filament\\Resources\\SeoSettingResource\\Pages\\CreateSeoSetting</text>
</g>
<!-- Client&#45;&gt;route_admin_seo_settings_create -->
<g id="edge5" class="edge">
<title>Client&#45;&gt;route_admin_seo_settings_create</title>
<path fill="none" stroke="#64748b" d="M28.03,-698.73C28.56,-771.25 34.32,-1036.76 90,-1094.38 91.84,-1096.28 93.75,-1098.1 95.71,-1099.84"/>
<polygon fill="#64748b" stroke="#64748b" points="93.52,-1102.56 103.53,-1106.01 97.85,-1097.07 93.52,-1102.56"/>
</g>
<!-- route_admin_seo_settings__record__edit -->
<g id="node7" class="node">
<title>route_admin_seo_settings__record__edit</title>
<path fill="#f8fafc" stroke="#cbd5e1" d="M437.5,-1085.75C437.5,-1085.75 123,-1085.75 123,-1085.75 117,-1085.75 111,-1079.75 111,-1073.75 111,-1073.75 111,-1047 111,-1047 111,-1041 117,-1035 123,-1035 123,-1035 437.5,-1035 437.5,-1035 443.5,-1035 449.5,-1041 449.5,-1047 449.5,-1047 449.5,-1073.75 449.5,-1073.75 449.5,-1079.75 443.5,-1085.75 437.5,-1085.75"/>
<text xml:space="preserve" text-anchor="middle" x="280.25" y="-1072.25" font-family="Segoe UI" font-size="10.00">GET admin/seo&#45;settings/{record}/edit</text>
<text xml:space="preserve" text-anchor="middle" x="280.25" y="-1058" font-family="Segoe UI" font-size="10.00">filament.admin.resources.seo&#45;settings.edit</text>
<text xml:space="preserve" text-anchor="middle" x="280.25" y="-1043.75" font-family="Segoe UI" font-size="10.00">App\\Filament\\Resources\\SeoSettingResource\\Pages\\EditSeoSetting</text>
</g>
<!-- Client&#45;&gt;route_admin_seo_settings__record__edit -->
<g id="edge6" class="edge">
<title>Client&#45;&gt;route_admin_seo_settings__record__edit</title>
<path fill="none" stroke="#64748b" d="M28.64,-698.7C31.26,-763.22 43.43,-978.57 90,-1025.38 93.51,-1028.91 97.26,-1032.14 101.2,-1035.11"/>
<polygon fill="#64748b" stroke="#64748b" points="99.22,-1038 109.47,-1040.71 103.15,-1032.21 99.22,-1038"/>
</g>
<!-- route_api_pages_home -->
<g id="node8" class="node">
<title>route_api_pages_home</title>
<path fill="#f8fafc" stroke="#cbd5e1" d="M394,-1016.75C394,-1016.75 166.5,-1016.75 166.5,-1016.75 160.5,-1016.75 154.5,-1010.75 154.5,-1004.75 154.5,-1004.75 154.5,-978 154.5,-978 154.5,-972 160.5,-966 166.5,-966 166.5,-966 394,-966 394,-966 400,-966 406,-972 406,-978 406,-978 406,-1004.75 406,-1004.75 406,-1010.75 400,-1016.75 394,-1016.75"/>
<text xml:space="preserve" text-anchor="middle" x="280.25" y="-1003.25" font-family="Segoe UI" font-size="10.00">GET api/pages/home</text>
<text xml:space="preserve" text-anchor="middle" x="280.25" y="-989" font-family="Segoe UI" font-size="10.00">(unnamed)</text>
<text xml:space="preserve" text-anchor="middle" x="280.25" y="-974.75" font-family="Segoe UI" font-size="10.00">App\\Http\\Controllers\\Api\\PageController@home</text>
</g>
<!-- Client&#45;&gt;route_api_pages_home -->
<g id="edge7" class="edge">
<title>Client&#45;&gt;route_api_pages_home</title>
<path fill="none" stroke="#64748b" d="M29.51,-698.44C34.5,-753.9 52.41,-920.19 90,-956.38 104.83,-970.65 123.47,-980.08 143.25,-986.17"/>
<polygon fill="#64748b" stroke="#64748b" points="142.3,-989.54 152.87,-988.82 144.16,-982.79 142.3,-989.54"/>
</g>
<!-- route_api_pages_ticket -->
<g id="node9" class="node">
<title>route_api_pages_ticket</title>
<path fill="#f8fafc" stroke="#cbd5e1" d="M393.62,-947.75C393.62,-947.75 166.88,-947.75 166.88,-947.75 160.88,-947.75 154.88,-941.75 154.88,-935.75 154.88,-935.75 154.88,-909 154.88,-909 154.88,-903 160.88,-897 166.88,-897 166.88,-897 393.62,-897 393.62,-897 399.62,-897 405.62,-903 405.62,-909 405.62,-909 405.62,-935.75 405.62,-935.75 405.62,-941.75 399.62,-947.75 393.62,-947.75"/>
<text xml:space="preserve" text-anchor="middle" x="280.25" y="-934.25" font-family="Segoe UI" font-size="10.00">GET api/pages/ticket</text>
<text xml:space="preserve" text-anchor="middle" x="280.25" y="-920" font-family="Segoe UI" font-size="10.00">(unnamed)</text>
<text xml:space="preserve" text-anchor="middle" x="280.25" y="-905.75" font-family="Segoe UI" font-size="10.00">App\\Http\\Controllers\\Api\\PageController@ticket</text>
</g>
<!-- Client&#45;&gt;route_api_pages_ticket -->
<g id="edge8" class="edge">
<title>Client&#45;&gt;route_api_pages_ticket</title>
<path fill="none" stroke="#64748b" d="M27.59,-698.87C27.76,-739.6 34.3,-837.39 90,-887.38 105.21,-901.03 123.96,-910.15 143.69,-916.13"/>
<polygon fill="#64748b" stroke="#64748b" points="142.7,-919.49 153.27,-918.75 144.54,-912.74 142.7,-919.49"/>
</g>
<!-- route_api_seo__page_ -->
<g id="node10" class="node">
<title>route_api_seo__page_</title>
<path fill="#f8fafc" stroke="#cbd5e1" d="M390.62,-878.75C390.62,-878.75 169.88,-878.75 169.88,-878.75 163.88,-878.75 157.88,-872.75 157.88,-866.75 157.88,-866.75 157.88,-840 157.88,-840 157.88,-834 163.88,-828 169.88,-828 169.88,-828 390.62,-828 390.62,-828 396.62,-828 402.62,-834 402.62,-840 402.62,-840 402.62,-866.75 402.62,-866.75 402.62,-872.75 396.62,-878.75 390.62,-878.75"/>
<text xml:space="preserve" text-anchor="middle" x="280.25" y="-865.25" font-family="Segoe UI" font-size="10.00">GET api/seo/{page}</text>
<text xml:space="preserve" text-anchor="middle" x="280.25" y="-851" font-family="Segoe UI" font-size="10.00">(unnamed)</text>
<text xml:space="preserve" text-anchor="middle" x="280.25" y="-836.75" font-family="Segoe UI" font-size="10.00">App\\Http\\Controllers\\Api\\SeoController@show</text>
</g>
<!-- Client&#45;&gt;route_api_seo__page_ -->
<g id="edge9" class="edge">
<title>Client&#45;&gt;route_api_seo__page_</title>
<path fill="none" stroke="#64748b" d="M30.67,-698.44C36.09,-728.39 51.37,-788.04 90,-818.38 106.48,-831.32 126.25,-840.02 146.7,-845.78"/>
<polygon fill="#64748b" stroke="#64748b" points="145.76,-849.16 156.32,-848.24 147.49,-842.37 145.76,-849.16"/>
</g>
<!-- route_api_user -->
<g id="node11" class="node">
<title>route_api_user</title>
<path fill="#f8fafc" stroke="#cbd5e1" d="M304.75,-809.75C304.75,-809.75 255.75,-809.75 255.75,-809.75 249.75,-809.75 243.75,-803.75 243.75,-797.75 243.75,-797.75 243.75,-771 243.75,-771 243.75,-765 249.75,-759 255.75,-759 255.75,-759 304.75,-759 304.75,-759 310.75,-759 316.75,-765 316.75,-771 316.75,-771 316.75,-797.75 316.75,-797.75 316.75,-803.75 310.75,-809.75 304.75,-809.75"/>
<text xml:space="preserve" text-anchor="middle" x="280.25" y="-796.25" font-family="Segoe UI" font-size="10.00">GET api/user</text>
<text xml:space="preserve" text-anchor="middle" x="280.25" y="-782" font-family="Segoe UI" font-size="10.00">(unnamed)</text>
<text xml:space="preserve" text-anchor="middle" x="280.25" y="-767.75" font-family="Segoe UI" font-size="10.00">Closure</text>
</g>
<!-- Client&#45;&gt;route_api_user -->
<g id="edge10" class="edge">
<title>Client&#45;&gt;route_api_user</title>
<path fill="none" stroke="#64748b" d="M38.34,-697.19C49.16,-713.27 67.66,-736.86 90,-749.38 134.04,-774.06 192.01,-781.8 232.14,-783.99"/>
<polygon fill="#64748b" stroke="#64748b" points="231.81,-787.48 241.95,-784.43 232.12,-780.49 231.81,-787.48"/>
</g>
<!-- route_filament_exports__export__download -->
<g id="node12" class="node">
<title>route_filament_exports__export__download</title>
<path fill="#f8fafc" stroke="#cbd5e1" d="M420.25,-740.75C420.25,-740.75 140.25,-740.75 140.25,-740.75 134.25,-740.75 128.25,-734.75 128.25,-728.75 128.25,-728.75 128.25,-702 128.25,-702 128.25,-696 134.25,-690 140.25,-690 140.25,-690 420.25,-690 420.25,-690 426.25,-690 432.25,-696 432.25,-702 432.25,-702 432.25,-728.75 432.25,-728.75 432.25,-734.75 426.25,-740.75 420.25,-740.75"/>
<text xml:space="preserve" text-anchor="middle" x="280.25" y="-727.25" font-family="Segoe UI" font-size="10.00">GET filament/exports/{export}/download</text>
<text xml:space="preserve" text-anchor="middle" x="280.25" y="-713" font-family="Segoe UI" font-size="10.00">filament.exports.download</text>
<text xml:space="preserve" text-anchor="middle" x="280.25" y="-698.75" font-family="Segoe UI" font-size="10.00">Filament\\Actions\\Exports\\Http\\Controllers\\DownloadExport</text>
</g>
<!-- Client&#45;&gt;route_filament_exports__export__download -->
<g id="edge11" class="edge">
<title>Client&#45;&gt;route_filament_exports__export__download</title>
<path fill="none" stroke="#64748b" d="M53.94,-683.99C70.09,-686.24 92.37,-689.34 116.67,-692.73"/>
<polygon fill="#64748b" stroke="#64748b" points="116.08,-696.18 126.46,-694.09 117.04,-689.24 116.08,-696.18"/>
</g>
<!-- route_filament_imports__import__failed_rows_download -->
<g id="node13" class="node">
<title>route_filament_imports__import__failed_rows_download</title>
<path fill="#f8fafc" stroke="#cbd5e1" d="M443.88,-671.75C443.88,-671.75 116.62,-671.75 116.62,-671.75 110.62,-671.75 104.62,-665.75 104.62,-659.75 104.62,-659.75 104.62,-633 104.62,-633 104.62,-627 110.62,-621 116.62,-621 116.62,-621 443.88,-621 443.88,-621 449.88,-621 455.88,-627 455.88,-633 455.88,-633 455.88,-659.75 455.88,-659.75 455.88,-665.75 449.88,-671.75 443.88,-671.75"/>
<text xml:space="preserve" text-anchor="middle" x="280.25" y="-658.25" font-family="Segoe UI" font-size="10.00">GET filament/imports/{import}/failed&#45;rows/download</text>
<text xml:space="preserve" text-anchor="middle" x="280.25" y="-644" font-family="Segoe UI" font-size="10.00">filament.imports.failed&#45;rows.download</text>
<text xml:space="preserve" text-anchor="middle" x="280.25" y="-629.75" font-family="Segoe UI" font-size="10.00">Filament\\Actions\\Imports\\Http\\Controllers\\DownloadImportFailureCsv</text>
</g>
<!-- Client&#45;&gt;route_filament_imports__import__failed_rows_download -->
<g id="edge12" class="edge">
<title>Client&#45;&gt;route_filament_imports__import__failed_rows_download</title>
<path fill="none" stroke="#64748b" d="M53.94,-676.86C64.69,-675.41 78.15,-673.59 93.11,-671.56"/>
<polygon fill="#64748b" stroke="#64748b" points="93.32,-675.07 102.76,-670.26 92.38,-668.13 93.32,-675.07"/>
</g>
<!-- route_livewire_livewire_js -->
<g id="node14" class="node">
<title>route_livewire_livewire_js</title>
<path fill="#f8fafc" stroke="#cbd5e1" d="M458.5,-602.75C458.5,-602.75 102,-602.75 102,-602.75 96,-602.75 90,-596.75 90,-590.75 90,-590.75 90,-564 90,-564 90,-558 96,-552 102,-552 102,-552 458.5,-552 458.5,-552 464.5,-552 470.5,-558 470.5,-564 470.5,-564 470.5,-590.75 470.5,-590.75 470.5,-596.75 464.5,-602.75 458.5,-602.75"/>
<text xml:space="preserve" text-anchor="middle" x="280.25" y="-589.25" font-family="Segoe UI" font-size="10.00">GET livewire/livewire.js</text>
<text xml:space="preserve" text-anchor="middle" x="280.25" y="-575" font-family="Segoe UI" font-size="10.00">(unnamed)</text>
<text xml:space="preserve" text-anchor="middle" x="280.25" y="-560.75" font-family="Segoe UI" font-size="10.00">Livewire\\Mechanisms\\FrontendAssets\\FrontendAssets@returnJavaScriptAsFile</text>
</g>
<!-- Client&#45;&gt;route_livewire_livewire_js -->
<g id="edge13" class="edge">
<title>Client&#45;&gt;route_livewire_livewire_js</title>
<path fill="none" stroke="#64748b" d="M38.39,-663.8C49.26,-647.96 67.8,-624.71 90,-612.38 92.88,-610.78 95.81,-609.25 98.79,-607.79"/>
<polygon fill="#64748b" stroke="#64748b" points="100.09,-611.05 107.74,-603.72 97.19,-604.68 100.09,-611.05"/>
</g>
<!-- route_livewire_livewire_min_js_map -->
<g id="node15" class="node">
<title>route_livewire_livewire_min_js_map</title>
<path fill="#f8fafc" stroke="#cbd5e1" d="M421,-533.75C421,-533.75 139.5,-533.75 139.5,-533.75 133.5,-533.75 127.5,-527.75 127.5,-521.75 127.5,-521.75 127.5,-495 127.5,-495 127.5,-489 133.5,-483 139.5,-483 139.5,-483 421,-483 421,-483 427,-483 433,-489 433,-495 433,-495 433,-521.75 433,-521.75 433,-527.75 427,-533.75 421,-533.75"/>
<text xml:space="preserve" text-anchor="middle" x="280.25" y="-520.25" font-family="Segoe UI" font-size="10.00">GET livewire/livewire.min.js.map</text>
<text xml:space="preserve" text-anchor="middle" x="280.25" y="-506" font-family="Segoe UI" font-size="10.00">(unnamed)</text>
<text xml:space="preserve" text-anchor="middle" x="280.25" y="-491.75" font-family="Segoe UI" font-size="10.00">Livewire\\Mechanisms\\FrontendAssets\\FrontendAssets@maps</text>
</g>
<!-- Client&#45;&gt;route_livewire_livewire_min_js_map -->
<g id="edge14" class="edge">
<title>Client&#45;&gt;route_livewire_livewire_min_js_map</title>
<path fill="none" stroke="#64748b" d="M30.71,-662.44C36.2,-632.7 51.56,-573.47 90,-543.38 98.21,-536.95 107.23,-531.56 116.74,-527.07"/>
<polygon fill="#64748b" stroke="#64748b" points="118.06,-530.31 125.86,-523.13 115.29,-523.89 118.06,-530.31"/>
</g>
<!-- route_livewire_preview_file__filename_ -->
<g id="node16" class="node">
<title>route_livewire_preview_file__filename_</title>
<path fill="#f8fafc" stroke="#cbd5e1" d="M436,-464.75C436,-464.75 124.5,-464.75 124.5,-464.75 118.5,-464.75 112.5,-458.75 112.5,-452.75 112.5,-452.75 112.5,-426 112.5,-426 112.5,-420 118.5,-414 124.5,-414 124.5,-414 436,-414 436,-414 442,-414 448,-420 448,-426 448,-426 448,-452.75 448,-452.75 448,-458.75 442,-464.75 436,-464.75"/>
<text xml:space="preserve" text-anchor="middle" x="280.25" y="-451.25" font-family="Segoe UI" font-size="10.00">GET livewire/preview&#45;file/{filename}</text>
<text xml:space="preserve" text-anchor="middle" x="280.25" y="-437" font-family="Segoe UI" font-size="10.00">livewire.preview&#45;file</text>
<text xml:space="preserve" text-anchor="middle" x="280.25" y="-422.75" font-family="Segoe UI" font-size="10.00">Livewire\\Features\\SupportFileUploads\\FilePreviewController@handle</text>
</g>
<!-- Client&#45;&gt;route_livewire_preview_file__filename_ -->
<g id="edge15" class="edge">
<title>Client&#45;&gt;route_livewire_preview_file__filename_</title>
<path fill="none" stroke="#64748b" d="M27.62,-661.97C27.85,-621.43 34.51,-524.1 90,-474.38 94.06,-470.73 98.38,-467.42 102.9,-464.39"/>
<polygon fill="#64748b" stroke="#64748b" points="104.42,-467.56 111.14,-459.38 100.78,-461.58 104.42,-467.56"/>
</g>
<!-- route_livewire_update -->
<g id="node17" class="node">
<title>route_livewire_update</title>
<path fill="#f8fafc" stroke="#cbd5e1" d="M442.38,-395.75C442.38,-395.75 118.12,-395.75 118.12,-395.75 112.12,-395.75 106.12,-389.75 106.12,-383.75 106.12,-383.75 106.12,-357 106.12,-357 106.12,-351 112.12,-345 118.12,-345 118.12,-345 442.38,-345 442.38,-345 448.38,-345 454.38,-351 454.38,-357 454.38,-357 454.38,-383.75 454.38,-383.75 454.38,-389.75 448.38,-395.75 442.38,-395.75"/>
<text xml:space="preserve" text-anchor="middle" x="280.25" y="-382.25" font-family="Segoe UI" font-size="10.00">POST livewire/update</text>
<text xml:space="preserve" text-anchor="middle" x="280.25" y="-368" font-family="Segoe UI" font-size="10.00">default.livewire.update</text>
<text xml:space="preserve" text-anchor="middle" x="280.25" y="-353.75" font-family="Segoe UI" font-size="10.00">Livewire\\Mechanisms\\HandleRequests\\HandleRequests@handleUpdate</text>
</g>
<!-- Client&#45;&gt;route_livewire_update -->
<g id="edge16" class="edge">
<title>Client&#45;&gt;route_livewire_update</title>
<path fill="none" stroke="#64748b" d="M29.55,-661.98C34.63,-606.33 52.61,-441.34 90,-405.38 92.16,-403.3 94.4,-401.32 96.71,-399.45"/>
<polygon fill="#64748b" stroke="#64748b" points="98.74,-402.3 104.76,-393.57 94.62,-396.64 98.74,-402.3"/>
</g>
<!-- route_livewire_upload_file -->
<g id="node18" class="node">
<title>route_livewire_upload_file</title>
<path fill="#f8fafc" stroke="#cbd5e1" d="M435.25,-326.75C435.25,-326.75 125.25,-326.75 125.25,-326.75 119.25,-326.75 113.25,-320.75 113.25,-314.75 113.25,-314.75 113.25,-288 113.25,-288 113.25,-282 119.25,-276 125.25,-276 125.25,-276 435.25,-276 435.25,-276 441.25,-276 447.25,-282 447.25,-288 447.25,-288 447.25,-314.75 447.25,-314.75 447.25,-320.75 441.25,-326.75 435.25,-326.75"/>
<text xml:space="preserve" text-anchor="middle" x="280.25" y="-313.25" font-family="Segoe UI" font-size="10.00">POST livewire/upload&#45;file</text>
<text xml:space="preserve" text-anchor="middle" x="280.25" y="-299" font-family="Segoe UI" font-size="10.00">livewire.upload&#45;file</text>
<text xml:space="preserve" text-anchor="middle" x="280.25" y="-284.75" font-family="Segoe UI" font-size="10.00">Livewire\\Features\\SupportFileUploads\\FileUploadController@handle</text>
</g>
<!-- Client&#45;&gt;route_livewire_upload_file -->
<g id="edge17" class="edge">
<title>Client&#45;&gt;route_livewire_upload_file</title>
<path fill="none" stroke="#64748b" d="M28.64,-662.11C31.3,-597.76 43.55,-383.04 90,-336.38 94.17,-332.19 98.66,-328.42 103.41,-325.02"/>
<polygon fill="#64748b" stroke="#64748b" points="105.08,-328.11 111.59,-319.75 101.29,-322.22 105.08,-328.11"/>
</g>
<!-- route_sanctum_csrf_cookie -->
<g id="node19" class="node">
<title>route_sanctum_csrf_cookie</title>
<path fill="#f8fafc" stroke="#cbd5e1" d="M424.38,-257.75C424.38,-257.75 136.12,-257.75 136.12,-257.75 130.12,-257.75 124.12,-251.75 124.12,-245.75 124.12,-245.75 124.12,-219 124.12,-219 124.12,-213 130.12,-207 136.12,-207 136.12,-207 424.38,-207 424.38,-207 430.38,-207 436.38,-213 436.38,-219 436.38,-219 436.38,-245.75 436.38,-245.75 436.38,-251.75 430.38,-257.75 424.38,-257.75"/>
<text xml:space="preserve" text-anchor="middle" x="280.25" y="-244.25" font-family="Segoe UI" font-size="10.00">GET sanctum/csrf&#45;cookie</text>
<text xml:space="preserve" text-anchor="middle" x="280.25" y="-230" font-family="Segoe UI" font-size="10.00">sanctum.csrf&#45;cookie</text>
<text xml:space="preserve" text-anchor="middle" x="280.25" y="-215.75" font-family="Segoe UI" font-size="10.00">Laravel\\Sanctum\\Http\\Controllers\\CsrfCookieController@show</text>
</g>
<!-- Client&#45;&gt;route_sanctum_csrf_cookie -->
<g id="edge18" class="edge">
<title>Client&#45;&gt;route_sanctum_csrf_cookie</title>
<path fill="none" stroke="#64748b" d="M28.04,-662.07C28.59,-589.71 34.44,-324.85 90,-267.38 97.09,-260.04 105.17,-253.96 113.92,-248.94"/>
<polygon fill="#64748b" stroke="#64748b" points="115.43,-252.1 122.71,-244.4 112.22,-245.88 115.43,-252.1"/>
</g>
<!-- route_storage__path_ -->
<g id="node20" class="node">
<title>route_storage__path_</title>
<path fill="#f8fafc" stroke="#cbd5e1" d="M321.62,-188.75C321.62,-188.75 238.88,-188.75 238.88,-188.75 232.88,-188.75 226.88,-182.75 226.88,-176.75 226.88,-176.75 226.88,-150 226.88,-150 226.88,-144 232.88,-138 238.88,-138 238.88,-138 321.62,-138 321.62,-138 327.62,-138 333.62,-144 333.62,-150 333.62,-150 333.62,-176.75 333.62,-176.75 333.62,-182.75 327.62,-188.75 321.62,-188.75"/>
<text xml:space="preserve" text-anchor="middle" x="280.25" y="-175.25" font-family="Segoe UI" font-size="10.00">PUT storage/{path}</text>
<text xml:space="preserve" text-anchor="middle" x="280.25" y="-161" font-family="Segoe UI" font-size="10.00">storage.local.upload</text>
<text xml:space="preserve" text-anchor="middle" x="280.25" y="-146.75" font-family="Segoe UI" font-size="10.00">Closure</text>
</g>
<!-- Client&#45;&gt;route_storage__path_ -->
<g id="edge19" class="edge">
<title>Client&#45;&gt;route_storage__path_</title>
<path fill="none" stroke="#64748b" d="M27.65,-662.11C26.32,-581.25 24.46,-258.62 90,-189.38 121.49,-156.1 173.54,-148.43 215.09,-149.86"/>
<polygon fill="#64748b" stroke="#64748b" points="214.81,-153.35 224.99,-150.41 215.2,-146.36 214.81,-153.35"/>
</g>
<!-- Client&#45;&gt;route_storage__path_ -->
<g id="edge20" class="edge">
<title>Client&#45;&gt;route_storage__path_</title>
<path fill="none" stroke="#64748b" d="M27.55,-662.02C26.27,-583 26.13,-274.85 90,-207.38 121.49,-174.1 173.54,-166.43 215.09,-165.1"/>
<polygon fill="#64748b" stroke="#64748b" points="215.06,-168.6 224.99,-164.9 214.92,-161.6 215.06,-168.6"/>
</g>
<!-- route_up -->
<g id="node21" class="node">
<title>route_up</title>
<path fill="#f8fafc" stroke="#cbd5e1" d="M300.62,-119.75C300.62,-119.75 259.88,-119.75 259.88,-119.75 253.88,-119.75 247.88,-113.75 247.88,-107.75 247.88,-107.75 247.88,-81 247.88,-81 247.88,-75 253.88,-69 259.88,-69 259.88,-69 300.62,-69 300.62,-69 306.62,-69 312.62,-75 312.62,-81 312.62,-81 312.62,-107.75 312.62,-107.75 312.62,-113.75 306.62,-119.75 300.62,-119.75"/>
<text xml:space="preserve" text-anchor="middle" x="280.25" y="-106.25" font-family="Segoe UI" font-size="10.00">GET up</text>
<text xml:space="preserve" text-anchor="middle" x="280.25" y="-92" font-family="Segoe UI" font-size="10.00">(unnamed)</text>
<text xml:space="preserve" text-anchor="middle" x="280.25" y="-77.75" font-family="Segoe UI" font-size="10.00">Closure</text>
</g>
<!-- Client&#45;&gt;route_up -->
<g id="edge21" class="edge">
<title>Client&#45;&gt;route_up</title>
<path fill="none" stroke="#64748b" d="M28.79,-662C32.86,-570.78 52.8,-169.3 90,-129.38 126.82,-89.85 192.62,-86.29 236.1,-89.03"/>
<polygon fill="#64748b" stroke="#64748b" points="235.71,-92.51 245.95,-89.8 236.26,-85.53 235.71,-92.51"/>
</g>
<!-- route__any__ -->
<g id="node22" class="node">
<title>route__any__</title>
<path fill="#f8fafc" stroke="#cbd5e1" d="M299.5,-50.75C299.5,-50.75 261,-50.75 261,-50.75 255,-50.75 249,-44.75 249,-38.75 249,-38.75 249,-12 249,-12 249,-6 255,0 261,0 261,0 299.5,0 299.5,0 305.5,0 311.5,-6 311.5,-12 311.5,-12 311.5,-38.75 311.5,-38.75 311.5,-44.75 305.5,-50.75 299.5,-50.75"/>
<text xml:space="preserve" text-anchor="middle" x="280.25" y="-37.25" font-family="Segoe UI" font-size="10.00">GET {any?}</text>
<text xml:space="preserve" text-anchor="middle" x="280.25" y="-23" font-family="Segoe UI" font-size="10.00">spa</text>
<text xml:space="preserve" text-anchor="middle" x="280.25" y="-8.75" font-family="Segoe UI" font-size="10.00">Closure</text>
</g>
<!-- Client&#45;&gt;route__any__ -->
<g id="edge22" class="edge">
<title>Client&#45;&gt;route__any__</title>
<path fill="none" stroke="#64748b" d="M28.54,-662.02C31.62,-564.1 48.16,-105.85 90,-60.38 126.99,-20.17 193.93,-17.05 237.48,-20.04"/>
<polygon fill="#64748b" stroke="#64748b" points="237.06,-23.51 247.31,-20.86 237.64,-16.54 237.06,-23.51"/>
</g>
</g>
</svg>
